{
	"asset":{
		"generator":"Khronos glTF Blender I/O v4.4.56",
		"version":"2.0"
	},
	"extensionsUsed":[
		"KHR_materials_emissive_strength",
		"KHR_materials_specular",
		"KHR_materials_ior"
	],
	"scene":0,
	"scenes":[
		{
			"name":"Scene",
			"nodes":[
				0
			]
		}
	],
	"nodes":[
		{
			"mesh":0,
			"name":"envmaphall"
		}
	],
	"materials":[
		{
			"doubleSided":true,
			"name":"Stone",
			"normalTexture":{
				"index":0
			},
			"pbrMetallicRoughness":{
				"baseColorTexture":{
					"index":1
				},
				"metallicFactor":0,
				"metallicRoughnessTexture":{
					"index":2
				}
			}
		},
		{
			"doubleSided":true,
			"extensions":{
				"KHR_materials_specular":{
					"specularColorFactor":[
						2.0,
						2.0,
						2.0
					]
				},
				"KHR_materials_ior":{
					"ior":1.4500000476837158
				}
			},
			"name":"Ground",
			"normalTexture":{
				"index":3
			},
			"pbrMetallicRoughness":{
				"baseColorTexture":{
					"index":4
				},
				"metallicFactor":0.30000001192092896,
				"metallicRoughnessTexture":{
					"index":5
				}
			}
		},
		{
			"doubleSided":true,
			"emissiveFactor":[
				1,
				1,
				1
			],
			"emissiveTexture":{
				"index":6
			},
			"extensions":{
				"KHR_materials_emissive_strength":{
					"emissiveStrength":11
				}
			},
			"name":"window",
			"pbrMetallicRoughness":{
				"baseColorTexture":{
					"index":7
				},
				"metallicFactor":0,
				"roughnessFactor":0.5
			}
		}
	],
	"meshes":[
		{
			"name":"Cube.003",
			"primitives":[
				{
					"attributes":{
						"POSITION":0,
						"NORMAL":1,
						"TEXCOORD_0":2,
						"TEXCOORD_1":3
					},
					"indices":4,
					"material":0
				},
				{
					"attributes":{
						"POSITION":5,
						"NORMAL":6,
						"TEXCOORD_0":7,
						"TEXCOORD_1":8
					},
					"indices":9,
					"material":1
				},
				{
					"attributes":{
						"POSITION":10,
						"NORMAL":11,
						"TEXCOORD_0":12,
						"TEXCOORD_1":13
					},
					"indices":14,
					"material":2
				}
			]
		}
	],
	"textures":[
		{
			"sampler":0,
			"source":0
		},
		{
			"sampler":0,
			"source":1
		},
		{
			"sampler":0,
			"source":2
		},
		{
			"sampler":0,
			"source":3
		},
		{
			"sampler":0,
			"source":4
		},
		{
			"sampler":0,
			"source":5
		},
		{
			"sampler":0,
			"source":6
		},
		{
			"sampler":0,
			"source":6
		}
	],
	"images":[
		{
			"mimeType":"image/png",
			"name":"wallstone_normal",
			"uri":"wallstone_normal.png"
		},
		{
			"mimeType":"image/png",
			"name":"wallstone",
			"uri":"wallstone.png"
		},
		{
			"mimeType":"image/png",
			"name":"wallstone_roughness",
			"uri":"wallstone_roughness.png"
		},
		{
			"mimeType":"image/png",
			"name":"floortiles_normal",
			"uri":"floortiles_normal.png"
		},
		{
			"mimeType":"image/png",
			"name":"floortiles",
			"uri":"floortiles.png"
		},
		{
			"mimeType":"image/png",
			"name":"floortiles_roughness",
			"uri":"floortiles_roughness.png"
		},
		{
			"mimeType":"image/png",
			"name":"window",
			"uri":"window.png"
		}
	],
	"accessors":[
		{
			"bufferView":0,
			"componentType":5126,
			"count":3055,
			"max":[
				4.377553939819336,
				6,
				2
			],
			"min":[
				-4,
				0,
				-2
			],
			"type":"VEC3"
		},
		{
			"bufferView":1,
			"componentType":5126,
			"count":3055,
			"type":"VEC3"
		},
		{
			"bufferView":2,
			"componentType":5126,
			"count":3055,
			"type":"VEC2"
		},
		{
			"bufferView":3,
			"componentType":5126,
			"count":3055,
			"type":"VEC2"
		},
		{
			"bufferView":4,
			"componentType":5123,
			"count":13170,
			"type":"SCALAR"
		},
		{
			"bufferView":5,
			"componentType":5126,
			"count":858,
			"max":[
				4,
				3.6705572605133057,
				2
			],
			"min":[
				-4,
				0,
				-2
			],
			"type":"VEC3"
		},
		{
			"bufferView":6,
			"componentType":5126,
			"count":858,
			"type":"VEC3"
		},
		{
			"bufferView":7,
			"componentType":5126,
			"count":858,
			"type":"VEC2"
		},
		{
			"bufferView":8,
			"componentType":5126,
			"count":858,
			"type":"VEC2"
		},
		{
			"bufferView":9,
			"componentType":5123,
			"count":2778,
			"type":"SCALAR"
		},
		{
			"bufferView":10,
			"componentType":5126,
			"count":15,
			"max":[
				4.066122055053711,
				4.998724937438965,
				0.9281783103942871
			],
			"min":[
				4.066122055053711,
				0.719520092010498,
				-0.9281783103942871
			],
			"type":"VEC3"
		},
		{
			"bufferView":11,
			"componentType":5126,
			"count":15,
			"type":"VEC3"
		},
		{
			"bufferView":12,
			"componentType":5126,
			"count":15,
			"type":"VEC2"
		},
		{
			"bufferView":13,
			"componentType":5126,
			"count":15,
			"type":"VEC2"
		},
		{
			"bufferView":14,
			"componentType":5123,
			"count":39,
			"type":"SCALAR"
		}
	],
	"bufferViews":[
		{
			"buffer":0,
			"byteLength":36660,
			"byteOffset":0,
			"target":34962
		},
		{
			"buffer":0,
			"byteLength":36660,
			"byteOffset":36660,
			"target":34962
		},
		{
			"buffer":0,
			"byteLength":24440,
			"byteOffset":73320,
			"target":34962
		},
		{
			"buffer":0,
			"byteLength":24440,
			"byteOffset":97760,
			"target":34962
		},
		{
			"buffer":0,
			"byteLength":26340,
			"byteOffset":122200,
			"target":34963
		},
		{
			"buffer":0,
			"byteLength":10296,
			"byteOffset":148540,
			"target":34962
		},
		{
			"buffer":0,
			"byteLength":10296,
			"byteOffset":158836,
			"target":34962
		},
		{
			"buffer":0,
			"byteLength":6864,
			"byteOffset":169132,
			"target":34962
		},
		{
			"buffer":0,
			"byteLength":6864,
			"byteOffset":175996,
			"target":34962
		},
		{
			"buffer":0,
			"byteLength":5556,
			"byteOffset":182860,
			"target":34963
		},
		{
			"buffer":0,
			"byteLength":180,
			"byteOffset":188416,
			"target":34962
		},
		{
			"buffer":0,
			"byteLength":180,
			"byteOffset":188596,
			"target":34962
		},
		{
			"buffer":0,
			"byteLength":120,
			"byteOffset":188776,
			"target":34962
		},
		{
			"buffer":0,
			"byteLength":120,
			"byteOffset":188896,
			"target":34962
		},
		{
			"buffer":0,
			"byteLength":78,
			"byteOffset":189016,
			"target":34963
		}
	],
	"samplers":[
		{
			"magFilter":9729,
			"minFilter":9987
		}
	],
	"buffers":[
		{
			"byteLength":189096,
			"uri":"envmaps_hall.bin"
		}
	]
}
