{
	"asset":{
		"version":"2.0",
		"generator":"Houdini GLTF 2.0 Exporter"
	},
	"accessors":[
		{
			"bufferView":0,
			"componentType":5123,
			"count":2070,
			"type":"SCALAR",
			"min":[0
			],
			"max":[950
			]
		},
		{
			"bufferView":1,
			"componentType":5126,
			"count":951,
			"type":"VEC3",
			"min":[-0.286171138,-0.457677811,-0.0157604832
			],
			"max":[0.451014638,0.351729184,0.38436538
			]
		},
		{
			"bufferView":2,
			"componentType":5126,
			"count":951,
			"type":"VEC3",
			"min":[0,0,0
			],
			"max":[0,0,0
			]
		},
		{
			"bufferView":3,
			"componentType":5126,
			"count":951,
			"type":"VEC3",
			"min":[1,1,1
			],
			"max":[1,1,1
			]
		},
		{
			"bufferView":4,
			"componentType":5126,
			"count":951,
			"type":"VEC3",
			"min":[0,0,0
			],
			"max":[0,0,0
			]
		},
		{
			"bufferView":5,
			"componentType":5126,
			"count":951,
			"type":"VEC3",
			"min":[0,1,0
			],
			"max":[0,1,0
			]
		},
		{
			"bufferView":6,
			"componentType":5126,
			"count":951,
			"type":"VEC3",
			"min":[-0.999830604,-0.999691606,-0.923700154
			],
			"max":[0.997868121,0.998188734,0.998116791
			]
		},
		{
			"bufferView":7,
			"componentType":5126,
			"count":951,
			"type":"VEC2",
			"min":[0.074162133,0.0108045936
			],
			"max":[0.421610594,0.988756299
			]
		},
		{
			"bufferView":8,
			"componentType":5126,
			"count":951,
			"type":"SCALAR",
			"min":[1
			],
			"max":[1
			]
		},
		{
			"bufferView":9,
			"componentType":5126,
			"count":951,
			"type":"VEC2",
			"min":[0.00471704314,0.0130429268
			],
			"max":[0.995000005,0.994532168
			]
		}
	],
	"buffers":[
		{
			"uri":"TundraGrass_LOD1_Var1_data.bin",
			"byteLength":91632,
			"name":"main_buffer"
		}
	],
	"bufferViews":[
		{
			"buffer":0,
			"byteLength":4140,
			"target":34963
		},
		{
			"buffer":0,
			"byteOffset":4140,
			"byteLength":11412,
			"target":34962
		},
		{
			"buffer":0,
			"byteOffset":15552,
			"byteLength":11412,
			"target":34962
		},
		{
			"buffer":0,
			"byteOffset":26964,
			"byteLength":11412,
			"target":34962
		},
		{
			"buffer":0,
			"byteOffset":38376,
			"byteLength":11412,
			"target":34962
		},
		{
			"buffer":0,
			"byteOffset":49788,
			"byteLength":11412,
			"target":34962
		},
		{
			"buffer":0,
			"byteOffset":61200,
			"byteLength":11412,
			"target":34962
		},
		{
			"buffer":0,
			"byteOffset":72612,
			"byteLength":7608,
			"target":34962
		},
		{
			"buffer":0,
			"byteOffset":80220,
			"byteLength":3804,
			"target":34962
		},
		{
			"buffer":0,
			"byteOffset":84024,
			"byteLength":7608,
			"target":34962
		}
	],
	"nodes":[
		{
			"name":"lods_0",
			"mesh":0
		}
	],
	"meshes":[
		{
			"primitives":[
				{
					"attributes":{
						"TEXCOORD_1":9,
						"_Alpha":8,
						"TEXCOORD_0":7,
						"NORMAL":6,
						"COLOR_0":5,
						"_fbx_rotation":4,
						"_fbx_scale":3,
						"_fbx_translation":2,
						"POSITION":1
					},
					"indices":0,
					"material":0
				}
			],
			"name":"transform2"
		}
	],
	"materials":[
		{
			"name":"grass_texture",
			"pbrMetallicRoughness":{
				"metallicFactor":0,
				"roughnessFactor":0.5,
				"baseColorTexture":{
					"index":0
				},
				"metallicRoughnessTexture":{
					"index":1
				}
			},
			"normalTexture":{
				"index":2
			}
		}
	],
	"scenes":[
		{
			"nodes":[0
			]
		}
	],
	"textures":[
		{
			"source":0
		},
		{
			"source":1
		},
		{
			"source":2
		}
	],
	"images":[
		{
			"uri":"Albedo_4K__wk2oaeyqx.jpg",
			"mimeType":"image/jpeg"
		},
		{
			"uri":"Roughness_4K__wk2oaeyqx.jpg",
			"mimeType":"image/jpeg"
		},
		{
			"uri":"Normal_4K__wk2oaeyqx.jpg",
			"mimeType":"image/jpeg"
		}
	],
	"scene":0
}
