{
	"asset":{
		"version":"2.0",
		"generator":"Houdini GLTF 2.0 Exporter"
	},
	"accessors":[
		{
			"bufferView":0,
			"componentType":5123,
			"count":18621,
			"type":"SCALAR",
			"min":[0
			],
			"max":[5648
			]
		},
		{
			"bufferView":1,
			"componentType":5126,
			"count":5649,
			"type":"VEC3",
			"min":[-0.632867932,-0.638867617,-0.0193340294
			],
			"max":[0.490685046,0.533953309,0.345341384
			]
		},
		{
			"bufferView":2,
			"componentType":5126,
			"count":5649,
			"type":"VEC3",
			"min":[0,0,0
			],
			"max":[0,0,0
			]
		},
		{
			"bufferView":3,
			"componentType":5126,
			"count":5649,
			"type":"VEC3",
			"min":[1,1,1
			],
			"max":[1,1,1
			]
		},
		{
			"bufferView":4,
			"componentType":5126,
			"count":5649,
			"type":"VEC3",
			"min":[0,0,0
			],
			"max":[0,0,0
			]
		},
		{
			"bufferView":5,
			"componentType":5126,
			"count":5649,
			"type":"VEC3",
			"min":[1,0,0
			],
			"max":[1,0,0
			]
		},
		{
			"bufferView":6,
			"componentType":5126,
			"count":5649,
			"type":"VEC3",
			"min":[-0.999766469,-0.999477983,-0.981307745
			],
			"max":[0.999510825,0.999963403,0.998031318
			]
		},
		{
			"bufferView":7,
			"componentType":5126,
			"count":5649,
			"type":"VEC2",
			"min":[0.0738683268,0.0108045936
			],
			"max":[0.422932446,0.995348096
			]
		},
		{
			"bufferView":8,
			"componentType":5126,
			"count":5649,
			"type":"SCALAR",
			"min":[0.996078014
			],
			"max":[1
			]
		},
		{
			"bufferView":9,
			"componentType":5126,
			"count":5649,
			"type":"VEC2",
			"min":[0.00499999989,0.00499999523
			],
			"max":[0.989723325,0.995000005
			]
		}
	],
	"buffers":[
		{
			"uri":"TundraGrass_LOD0_Var3_data.bin",
			"byteLength":556952,
			"name":"main_buffer"
		}
	],
	"bufferViews":[
		{
			"buffer":0,
			"byteLength":37242,
			"target":34963
		},
		{
			"buffer":0,
			"byteOffset":37244,
			"byteLength":67788,
			"target":34962
		},
		{
			"buffer":0,
			"byteOffset":105032,
			"byteLength":67788,
			"target":34962
		},
		{
			"buffer":0,
			"byteOffset":172820,
			"byteLength":67788,
			"target":34962
		},
		{
			"buffer":0,
			"byteOffset":240608,
			"byteLength":67788,
			"target":34962
		},
		{
			"buffer":0,
			"byteOffset":308396,
			"byteLength":67788,
			"target":34962
		},
		{
			"buffer":0,
			"byteOffset":376184,
			"byteLength":67788,
			"target":34962
		},
		{
			"buffer":0,
			"byteOffset":443972,
			"byteLength":45192,
			"target":34962
		},
		{
			"buffer":0,
			"byteOffset":489164,
			"byteLength":22596,
			"target":34962
		},
		{
			"buffer":0,
			"byteOffset":511760,
			"byteLength":45192,
			"target":34962
		}
	],
	"nodes":[
		{
			"name":"lods_0",
			"mesh":0
		}
	],
	"meshes":[
		{
			"primitives":[
				{
					"attributes":{
						"TEXCOORD_1":9,
						"_Alpha":8,
						"TEXCOORD_0":7,
						"NORMAL":6,
						"COLOR_0":5,
						"_fbx_rotation":4,
						"_fbx_scale":3,
						"_fbx_translation":2,
						"POSITION":1
					},
					"indices":0,
					"material":0
				}
			],
			"name":"transform2"
		}
	],
	"materials":[
		{
			"name":"grass_texture",
			"pbrMetallicRoughness":{
				"metallicFactor":0,
				"roughnessFactor":0.5,
				"baseColorTexture":{
					"index":0
				},
				"metallicRoughnessTexture":{
					"index":1
				}
			},
			"normalTexture":{
				"index":2
			}
		}
	],
	"scenes":[
		{
			"nodes":[0
			]
		}
	],
	"textures":[
		{
			"source":0
		},
		{
			"source":1
		},
		{
			"source":2
		}
	],
	"images":[
		{
			"uri":"Albedo_4K__wk2oaeyqx.jpg",
			"mimeType":"image/jpeg"
		},
		{
			"uri":"Roughness_4K__wk2oaeyqx.jpg",
			"mimeType":"image/jpeg"
		},
		{
			"uri":"Normal_4K__wk2oaeyqx.jpg",
			"mimeType":"image/jpeg"
		}
	],
	"scene":0
}
