{
	"asset":{
		"version":"2.0",
		"generator":"Houdini GLTF 2.0 Exporter"
	},
	"accessors":[
		{
			"bufferView":0,
			"componentType":5123,
			"count":2550,
			"type":"SCALAR",
			"min":[0
			],
			"max":[1186
			]
		},
		{
			"bufferView":1,
			"componentType":5126,
			"count":1187,
			"type":"VEC3",
			"min":[-0.333890826,-0.374016672,-0.0202891752
			],
			"max":[0.491005242,0.48107782,0.455630392
			]
		},
		{
			"bufferView":2,
			"componentType":5126,
			"count":1187,
			"type":"VEC3",
			"min":[0,0,0
			],
			"max":[0,0,0
			]
		},
		{
			"bufferView":3,
			"componentType":5126,
			"count":1187,
			"type":"VEC3",
			"min":[1,1,1
			],
			"max":[1,1,1
			]
		},
		{
			"bufferView":4,
			"componentType":5126,
			"count":1187,
			"type":"VEC3",
			"min":[0,0,0
			],
			"max":[0,0,0
			]
		},
		{
			"bufferView":5,
			"componentType":5126,
			"count":1187,
			"type":"VEC3",
			"min":[0,1,0
			],
			"max":[0,1,0
			]
		},
		{
			"bufferView":6,
			"componentType":5126,
			"count":1187,
			"type":"VEC3",
			"min":[-0.99688673,-0.99940604,-0.989287376
			],
			"max":[0.998382568,0.99608618,0.996626675
			]
		},
		{
			"bufferView":7,
			"componentType":5126,
			"count":1187,
			"type":"VEC2",
			"min":[0.0740944371,0.0108045936
			],
			"max":[0.415080994,0.988646448
			]
		},
		{
			"bufferView":8,
			"componentType":5126,
			"count":1187,
			"type":"SCALAR",
			"min":[0.997056723
			],
			"max":[1.00047088
			]
		},
		{
			"bufferView":9,
			"componentType":5126,
			"count":1187,
			"type":"VEC2",
			"min":[0.00531145511,0.00834858418
			],
			"max":[0.985973954,0.994979739
			]
		}
	],
	"buffers":[
		{
			"uri":"TundraGrass_LOD1_Var2_data.bin",
			"byteLength":114304,
			"name":"main_buffer"
		}
	],
	"bufferViews":[
		{
			"buffer":0,
			"byteLength":5100,
			"target":34963
		},
		{
			"buffer":0,
			"byteOffset":5100,
			"byteLength":14244,
			"target":34962
		},
		{
			"buffer":0,
			"byteOffset":19344,
			"byteLength":14244,
			"target":34962
		},
		{
			"buffer":0,
			"byteOffset":33588,
			"byteLength":14244,
			"target":34962
		},
		{
			"buffer":0,
			"byteOffset":47832,
			"byteLength":14244,
			"target":34962
		},
		{
			"buffer":0,
			"byteOffset":62076,
			"byteLength":14244,
			"target":34962
		},
		{
			"buffer":0,
			"byteOffset":76320,
			"byteLength":14244,
			"target":34962
		},
		{
			"buffer":0,
			"byteOffset":90564,
			"byteLength":9496,
			"target":34962
		},
		{
			"buffer":0,
			"byteOffset":100060,
			"byteLength":4748,
			"target":34962
		},
		{
			"buffer":0,
			"byteOffset":104808,
			"byteLength":9496,
			"target":34962
		}
	],
	"nodes":[
		{
			"name":"lods_0",
			"mesh":0
		}
	],
	"meshes":[
		{
			"primitives":[
				{
					"attributes":{
						"TEXCOORD_1":9,
						"_Alpha":8,
						"TEXCOORD_0":7,
						"NORMAL":6,
						"COLOR_0":5,
						"_fbx_rotation":4,
						"_fbx_scale":3,
						"_fbx_translation":2,
						"POSITION":1
					},
					"indices":0,
					"material":0
				}
			],
			"name":"transform2"
		}
	],
	"materials":[
		{
			"name":"grass_texture",
			"pbrMetallicRoughness":{
				"metallicFactor":0,
				"roughnessFactor":0.5,
				"baseColorTexture":{
					"index":0
				},
				"metallicRoughnessTexture":{
					"index":1
				}
			},
			"normalTexture":{
				"index":2
			}
		}
	],
	"scenes":[
		{
			"nodes":[0
			]
		}
	],
	"textures":[
		{
			"source":0
		},
		{
			"source":1
		},
		{
			"source":2
		}
	],
	"images":[
		{
			"uri":"Albedo_4K__wk2oaeyqx.jpg",
			"mimeType":"image/jpeg"
		},
		{
			"uri":"Roughness_4K__wk2oaeyqx.jpg",
			"mimeType":"image/jpeg"
		},
		{
			"uri":"Normal_4K__wk2oaeyqx.jpg",
			"mimeType":"image/jpeg"
		}
	],
	"scene":0
}
