{
	"asset":{
		"version":"2.0",
		"generator":"Houdini GLTF 2.0 Exporter"
	},
	"accessors":[
		{
			"bufferView":0,
			"componentType":5123,
			"count":10845,
			"type":"SCALAR",
			"min":[0
			],
			"max":[3292
			]
		},
		{
			"bufferView":1,
			"componentType":5126,
			"count":3293,
			"type":"VEC3",
			"min":[-0.336782455,-0.374016672,-0.0161321275
			],
			"max":[0.49293381,0.483413368,0.455630392
			]
		},
		{
			"bufferView":2,
			"componentType":5126,
			"count":3293,
			"type":"VEC3",
			"min":[0,0,0
			],
			"max":[0,0,0
			]
		},
		{
			"bufferView":3,
			"componentType":5126,
			"count":3293,
			"type":"VEC3",
			"min":[1,1,1
			],
			"max":[1,1,1
			]
		},
		{
			"bufferView":4,
			"componentType":5126,
			"count":3293,
			"type":"VEC3",
			"min":[0,0,0
			],
			"max":[0,0,0
			]
		},
		{
			"bufferView":5,
			"componentType":5126,
			"count":3293,
			"type":"VEC3",
			"min":[1,0,0
			],
			"max":[1,0,0
			]
		},
		{
			"bufferView":6,
			"componentType":5126,
			"count":3293,
			"type":"VEC3",
			"min":[-0.999130607,-0.999369621,-0.943806708
			],
			"max":[0.999936223,0.997824728,0.999457657
			]
		},
		{
			"bufferView":7,
			"componentType":5126,
			"count":3293,
			"type":"VEC2",
			"min":[0.0738683268,0.0108045936
			],
			"max":[0.422932446,0.995348096
			]
		},
		{
			"bufferView":8,
			"componentType":5126,
			"count":3293,
			"type":"SCALAR",
			"min":[0.996078014
			],
			"max":[1
			]
		},
		{
			"bufferView":9,
			"componentType":5126,
			"count":3293,
			"type":"VEC2",
			"min":[0.00499999989,0.00499999523
			],
			"max":[0.987040818,0.995000005
			]
		}
	],
	"buffers":[
		{
			"uri":"TundraGrass_LOD0_Var2_data.bin",
			"byteLength":324648,
			"name":"main_buffer"
		}
	],
	"bufferViews":[
		{
			"buffer":0,
			"byteLength":21690,
			"target":34963
		},
		{
			"buffer":0,
			"byteOffset":21692,
			"byteLength":39516,
			"target":34962
		},
		{
			"buffer":0,
			"byteOffset":61208,
			"byteLength":39516,
			"target":34962
		},
		{
			"buffer":0,
			"byteOffset":100724,
			"byteLength":39516,
			"target":34962
		},
		{
			"buffer":0,
			"byteOffset":140240,
			"byteLength":39516,
			"target":34962
		},
		{
			"buffer":0,
			"byteOffset":179756,
			"byteLength":39516,
			"target":34962
		},
		{
			"buffer":0,
			"byteOffset":219272,
			"byteLength":39516,
			"target":34962
		},
		{
			"buffer":0,
			"byteOffset":258788,
			"byteLength":26344,
			"target":34962
		},
		{
			"buffer":0,
			"byteOffset":285132,
			"byteLength":13172,
			"target":34962
		},
		{
			"buffer":0,
			"byteOffset":298304,
			"byteLength":26344,
			"target":34962
		}
	],
	"nodes":[
		{
			"name":"lods_0",
			"mesh":0
		}
	],
	"meshes":[
		{
			"primitives":[
				{
					"attributes":{
						"TEXCOORD_1":9,
						"_Alpha":8,
						"TEXCOORD_0":7,
						"NORMAL":6,
						"COLOR_0":5,
						"_fbx_rotation":4,
						"_fbx_scale":3,
						"_fbx_translation":2,
						"POSITION":1
					},
					"indices":0,
					"material":0
				}
			],
			"name":"transform2"
		}
	],
	"materials":[
		{
			"name":"grass_texture",
			"pbrMetallicRoughness":{
				"metallicFactor":0,
				"roughnessFactor":0.5,
				"baseColorTexture":{
					"index":0
				},
				"metallicRoughnessTexture":{
					"index":1
				}
			},
			"normalTexture":{
				"index":2
			}
		}
	],
	"scenes":[
		{
			"nodes":[0
			]
		}
	],
	"textures":[
		{
			"source":0
		},
		{
			"source":1
		},
		{
			"source":2
		}
	],
	"images":[
		{
			"uri":"Albedo_4K__wk2oaeyqx.jpg",
			"mimeType":"image/jpeg"
		},
		{
			"uri":"Roughness_4K__wk2oaeyqx.jpg",
			"mimeType":"image/jpeg"
		},
		{
			"uri":"Normal_4K__wk2oaeyqx.jpg",
			"mimeType":"image/jpeg"
		}
	],
	"scene":0
}
