{
	"asset":{
		"version":"2.0",
		"generator":"Houdini GLTF 2.0 Exporter"
	},
	"accessors":[
		{
			"bufferView":0,
			"componentType":5123,
			"count":903,
			"type":"SCALAR",
			"min":[0
			],
			"max":[513
			]
		},
		{
			"bufferView":1,
			"componentType":5126,
			"count":514,
			"type":"VEC3",
			"min":[-0.287648201,-0.327237964,-0.0202891752
			],
			"max":[0.473216504,0.464166135,0.416823804
			]
		},
		{
			"bufferView":2,
			"componentType":5126,
			"count":514,
			"type":"VEC3",
			"min":[0,0,0
			],
			"max":[0,0,0
			]
		},
		{
			"bufferView":3,
			"componentType":5126,
			"count":514,
			"type":"VEC3",
			"min":[1,1,1
			],
			"max":[1,1,1
			]
		},
		{
			"bufferView":4,
			"componentType":5126,
			"count":514,
			"type":"VEC3",
			"min":[0,0,0
			],
			"max":[0,0,0
			]
		},
		{
			"bufferView":5,
			"componentType":5126,
			"count":514,
			"type":"VEC3",
			"min":[0,0,1
			],
			"max":[0,0,1
			]
		},
		{
			"bufferView":6,
			"componentType":5126,
			"count":514,
			"type":"VEC3",
			"min":[-0.999634206,-0.999501228,-0.989287376
			],
			"max":[0.995008469,0.996197879,0.949412286
			]
		},
		{
			"bufferView":7,
			"componentType":5126,
			"count":514,
			"type":"VEC2",
			"min":[0.0741621479,0.0463250875
			],
			"max":[0.411760449,0.974131167
			]
		},
		{
			"bufferView":8,
			"componentType":5126,
			"count":514,
			"type":"SCALAR",
			"min":[0.998333752
			],
			"max":[1.00047088
			]
		},
		{
			"bufferView":9,
			"componentType":5126,
			"count":514,
			"type":"VEC2",
			"min":[0.00515178032,0.013051331
			],
			"max":[0.983282506,0.987730861
			]
		}
	],
	"buffers":[
		{
			"uri":"TundraGrass_LOD2_Var2_data.bin",
			"byteLength":49096,
			"name":"main_buffer"
		}
	],
	"bufferViews":[
		{
			"buffer":0,
			"byteLength":1806,
			"target":34963
		},
		{
			"buffer":0,
			"byteOffset":1808,
			"byteLength":6168,
			"target":34962
		},
		{
			"buffer":0,
			"byteOffset":7976,
			"byteLength":6168,
			"target":34962
		},
		{
			"buffer":0,
			"byteOffset":14144,
			"byteLength":6168,
			"target":34962
		},
		{
			"buffer":0,
			"byteOffset":20312,
			"byteLength":6168,
			"target":34962
		},
		{
			"buffer":0,
			"byteOffset":26480,
			"byteLength":6168,
			"target":34962
		},
		{
			"buffer":0,
			"byteOffset":32648,
			"byteLength":6168,
			"target":34962
		},
		{
			"buffer":0,
			"byteOffset":38816,
			"byteLength":4112,
			"target":34962
		},
		{
			"buffer":0,
			"byteOffset":42928,
			"byteLength":2056,
			"target":34962
		},
		{
			"buffer":0,
			"byteOffset":44984,
			"byteLength":4112,
			"target":34962
		}
	],
	"nodes":[
		{
			"name":"lods_0",
			"mesh":0
		}
	],
	"meshes":[
		{
			"primitives":[
				{
					"attributes":{
						"TEXCOORD_1":9,
						"_Alpha":8,
						"TEXCOORD_0":7,
						"NORMAL":6,
						"COLOR_0":5,
						"_fbx_rotation":4,
						"_fbx_scale":3,
						"_fbx_translation":2,
						"POSITION":1
					},
					"indices":0,
					"material":0
				}
			],
			"name":"transform2"
		}
	],
	"materials":[
		{
			"name":"grass_texture",
			"pbrMetallicRoughness":{
				"metallicFactor":0,
				"roughnessFactor":0.5,
				"baseColorTexture":{
					"index":0
				},
				"metallicRoughnessTexture":{
					"index":1
				}
			},
			"normalTexture":{
				"index":2
			}
		}
	],
	"scenes":[
		{
			"nodes":[0
			]
		}
	],
	"textures":[
		{
			"source":0
		},
		{
			"source":1
		},
		{
			"source":2
		}
	],
	"images":[
		{
			"uri":"Albedo_4K__wk2oaeyqx.jpg",
			"mimeType":"image/jpeg"
		},
		{
			"uri":"Roughness_4K__wk2oaeyqx.jpg",
			"mimeType":"image/jpeg"
		},
		{
			"uri":"Normal_4K__wk2oaeyqx.jpg",
			"mimeType":"image/jpeg"
		}
	],
	"scene":0
}
