{
	"asset":{
		"version":"2.0",
		"generator":"Houdini GLTF 2.0 Exporter"
	},
	"accessors":[
		{
			"bufferView":0,
			"componentType":5123,
			"count":5073,
			"type":"SCALAR",
			"min":[0
			],
			"max":[2927
			]
		},
		{
			"bufferView":1,
			"componentType":5126,
			"count":2928,
			"type":"VEC3",
			"min":[-0.913436234,-0.657298207,-0.017534228
			],
			"max":[0.947806537,0.791845977,0.447208464
			]
		},
		{
			"bufferView":2,
			"componentType":5126,
			"count":2928,
			"type":"VEC3",
			"min":[0,0,0
			],
			"max":[0,0,0
			]
		},
		{
			"bufferView":3,
			"componentType":5126,
			"count":2928,
			"type":"VEC3",
			"min":[1,1,1
			],
			"max":[1,1,1
			]
		},
		{
			"bufferView":4,
			"componentType":5126,
			"count":2928,
			"type":"VEC3",
			"min":[0,0,0
			],
			"max":[0,0,0
			]
		},
		{
			"bufferView":5,
			"componentType":5126,
			"count":2928,
			"type":"VEC3",
			"min":[0,0,1
			],
			"max":[0,0,1
			]
		},
		{
			"bufferView":6,
			"componentType":5126,
			"count":2928,
			"type":"VEC3",
			"min":[-0.998928428,-0.999191582,-0.957572341
			],
			"max":[0.999415517,0.999958396,0.995199978
			]
		},
		{
			"bufferView":7,
			"componentType":5126,
			"count":2928,
			"type":"VEC2",
			"min":[0.0741606951,0.00858104229
			],
			"max":[0.421596587,0.977857828
			]
		},
		{
			"bufferView":8,
			"componentType":5126,
			"count":2928,
			"type":"SCALAR",
			"min":[0.996964335
			],
			"max":[1.00087154
			]
		},
		{
			"bufferView":9,
			"componentType":5126,
			"count":2928,
			"type":"VEC2",
			"min":[0.00469781412,0.0124627352
			],
			"max":[0.987596214,0.994740069
			]
		}
	],
	"buffers":[
		{
			"uri":"TundraGrass_LOD2_Var5_data.bin",
			"byteLength":279524,
			"name":"main_buffer"
		}
	],
	"bufferViews":[
		{
			"buffer":0,
			"byteLength":10146,
			"target":34963
		},
		{
			"buffer":0,
			"byteOffset":10148,
			"byteLength":35136,
			"target":34962
		},
		{
			"buffer":0,
			"byteOffset":45284,
			"byteLength":35136,
			"target":34962
		},
		{
			"buffer":0,
			"byteOffset":80420,
			"byteLength":35136,
			"target":34962
		},
		{
			"buffer":0,
			"byteOffset":115556,
			"byteLength":35136,
			"target":34962
		},
		{
			"buffer":0,
			"byteOffset":150692,
			"byteLength":35136,
			"target":34962
		},
		{
			"buffer":0,
			"byteOffset":185828,
			"byteLength":35136,
			"target":34962
		},
		{
			"buffer":0,
			"byteOffset":220964,
			"byteLength":23424,
			"target":34962
		},
		{
			"buffer":0,
			"byteOffset":244388,
			"byteLength":11712,
			"target":34962
		},
		{
			"buffer":0,
			"byteOffset":256100,
			"byteLength":23424,
			"target":34962
		}
	],
	"nodes":[
		{
			"name":"lods_0",
			"mesh":0
		}
	],
	"meshes":[
		{
			"primitives":[
				{
					"attributes":{
						"TEXCOORD_1":9,
						"_Alpha":8,
						"TEXCOORD_0":7,
						"NORMAL":6,
						"COLOR_0":5,
						"_fbx_rotation":4,
						"_fbx_scale":3,
						"_fbx_translation":2,
						"POSITION":1
					},
					"indices":0,
					"material":0
				}
			],
			"name":"transform2"
		}
	],
	"materials":[
		{
			"name":"grass_texture",
			"pbrMetallicRoughness":{
				"metallicFactor":0,
				"roughnessFactor":0.5,
				"baseColorTexture":{
					"index":0
				},
				"metallicRoughnessTexture":{
					"index":1
				}
			},
			"normalTexture":{
				"index":2
			}
		}
	],
	"scenes":[
		{
			"nodes":[0
			]
		}
	],
	"textures":[
		{
			"source":0
		},
		{
			"source":1
		},
		{
			"source":2
		}
	],
	"images":[
		{
			"uri":"Albedo_4K__wk2oaeyqx.jpg",
			"mimeType":"image/jpeg"
		},
		{
			"uri":"Roughness_4K__wk2oaeyqx.jpg",
			"mimeType":"image/jpeg"
		},
		{
			"uri":"Normal_4K__wk2oaeyqx.jpg",
			"mimeType":"image/jpeg"
		}
	],
	"scene":0
}
