{
	"asset":{
		"version":"2.0",
		"generator":"Houdini GLTF 2.0 Exporter"
	},
	"accessors":[
		{
			"bufferView":0,
			"componentType":5123,
			"count":714,
			"type":"SCALAR",
			"min":[0
			],
			"max":[398
			]
		},
		{
			"bufferView":1,
			"componentType":5126,
			"count":399,
			"type":"VEC3",
			"min":[-0.28164202,-0.441039354,-0.0157390814
			],
			"max":[0.407260925,0.31964314,0.383195043
			]
		},
		{
			"bufferView":2,
			"componentType":5126,
			"count":399,
			"type":"VEC3",
			"min":[0,0,0
			],
			"max":[0,0,0
			]
		},
		{
			"bufferView":3,
			"componentType":5126,
			"count":399,
			"type":"VEC3",
			"min":[1,1,1
			],
			"max":[1,1,1
			]
		},
		{
			"bufferView":4,
			"componentType":5126,
			"count":399,
			"type":"VEC3",
			"min":[0,0,0
			],
			"max":[0,0,0
			]
		},
		{
			"bufferView":5,
			"componentType":5126,
			"count":399,
			"type":"VEC3",
			"min":[0,0,1
			],
			"max":[0,0,1
			]
		},
		{
			"bufferView":6,
			"componentType":5126,
			"count":399,
			"type":"VEC3",
			"min":[-0.999893904,-0.998848677,-0.840205371
			],
			"max":[0.99814266,0.994296312,0.993764699
			]
		},
		{
			"bufferView":7,
			"componentType":5126,
			"count":399,
			"type":"VEC2",
			"min":[0.0741621479,0.0463250875
			],
			"max":[0.421610594,0.974131107
			]
		},
		{
			"bufferView":8,
			"componentType":5126,
			"count":399,
			"type":"SCALAR",
			"min":[1
			],
			"max":[1
			]
		},
		{
			"bufferView":9,
			"componentType":5126,
			"count":399,
			"type":"VEC2",
			"min":[0.00450472301,0.0772144794
			],
			"max":[0.996652901,0.97444272
			]
		}
	],
	"buffers":[
		{
			"uri":"TundraGrass_LOD2_Var1_data.bin",
			"byteLength":38136,
			"name":"main_buffer"
		}
	],
	"bufferViews":[
		{
			"buffer":0,
			"byteLength":1428,
			"target":34963
		},
		{
			"buffer":0,
			"byteOffset":1428,
			"byteLength":4788,
			"target":34962
		},
		{
			"buffer":0,
			"byteOffset":6216,
			"byteLength":4788,
			"target":34962
		},
		{
			"buffer":0,
			"byteOffset":11004,
			"byteLength":4788,
			"target":34962
		},
		{
			"buffer":0,
			"byteOffset":15792,
			"byteLength":4788,
			"target":34962
		},
		{
			"buffer":0,
			"byteOffset":20580,
			"byteLength":4788,
			"target":34962
		},
		{
			"buffer":0,
			"byteOffset":25368,
			"byteLength":4788,
			"target":34962
		},
		{
			"buffer":0,
			"byteOffset":30156,
			"byteLength":3192,
			"target":34962
		},
		{
			"buffer":0,
			"byteOffset":33348,
			"byteLength":1596,
			"target":34962
		},
		{
			"buffer":0,
			"byteOffset":34944,
			"byteLength":3192,
			"target":34962
		}
	],
	"nodes":[
		{
			"name":"lods_0",
			"mesh":0
		}
	],
	"meshes":[
		{
			"primitives":[
				{
					"attributes":{
						"TEXCOORD_1":9,
						"_Alpha":8,
						"TEXCOORD_0":7,
						"NORMAL":6,
						"COLOR_0":5,
						"_fbx_rotation":4,
						"_fbx_scale":3,
						"_fbx_translation":2,
						"POSITION":1
					},
					"indices":0,
					"material":0
				}
			],
			"name":"transform2"
		}
	],
	"materials":[
		{
			"name":"grass_texture",
			"pbrMetallicRoughness":{
				"metallicFactor":0,
				"roughnessFactor":0.5,
				"baseColorTexture":{
					"index":0
				},
				"metallicRoughnessTexture":{
					"index":1
				}
			},
			"normalTexture":{
				"index":2
			}
		}
	],
	"scenes":[
		{
			"nodes":[0
			]
		}
	],
	"textures":[
		{
			"source":0
		},
		{
			"source":1
		},
		{
			"source":2
		}
	],
	"images":[
		{
			"uri":"Albedo_4K__wk2oaeyqx.jpg",
			"mimeType":"image/jpeg"
		},
		{
			"uri":"Roughness_4K__wk2oaeyqx.jpg",
			"mimeType":"image/jpeg"
		},
		{
			"uri":"Normal_4K__wk2oaeyqx.jpg",
			"mimeType":"image/jpeg"
		}
	],
	"scene":0
}
