{
	"asset":{
		"version":"2.0",
		"generator":"Houdini GLTF 2.0 Exporter"
	},
	"accessors":[
		{
			"bufferView":0,
			"componentType":5123,
			"count":4377,
			"type":"SCALAR",
			"min":[0
			],
			"max":[2087
			]
		},
		{
			"bufferView":1,
			"componentType":5126,
			"count":2088,
			"type":"VEC3",
			"min":[-0.630648673,-0.636377931,-0.0200507566
			],
			"max":[0.484888971,0.53145647,0.345341384
			]
		},
		{
			"bufferView":2,
			"componentType":5126,
			"count":2088,
			"type":"VEC3",
			"min":[0,0,0
			],
			"max":[0,0,0
			]
		},
		{
			"bufferView":3,
			"componentType":5126,
			"count":2088,
			"type":"VEC3",
			"min":[1,1,1
			],
			"max":[1,1,1
			]
		},
		{
			"bufferView":4,
			"componentType":5126,
			"count":2088,
			"type":"VEC3",
			"min":[0,0,0
			],
			"max":[0,0,0
			]
		},
		{
			"bufferView":5,
			"componentType":5126,
			"count":2088,
			"type":"VEC3",
			"min":[0,1,0
			],
			"max":[0,1,0
			]
		},
		{
			"bufferView":6,
			"componentType":5126,
			"count":2088,
			"type":"VEC3",
			"min":[-0.999971807,-0.999929488,-0.972561359
			],
			"max":[0.999864638,0.998995543,0.997517586
			]
		},
		{
			"bufferView":7,
			"componentType":5126,
			"count":2088,
			"type":"VEC2",
			"min":[0.0741621405,0.00265944004
			],
			"max":[0.421154559,1.00054657
			]
		},
		{
			"bufferView":8,
			"componentType":5126,
			"count":2088,
			"type":"SCALAR",
			"min":[0.997057557
			],
			"max":[1.00026965
			]
		},
		{
			"bufferView":9,
			"componentType":5126,
			"count":2088,
			"type":"VEC2",
			"min":[0.00521921786,0.0125073791
			],
			"max":[0.989190757,0.995627999
			]
		}
	],
	"buffers":[
		{
			"uri":"TundraGrass_LOD1_Var3_data.bin",
			"byteLength":200852,
			"name":"main_buffer"
		}
	],
	"bufferViews":[
		{
			"buffer":0,
			"byteLength":8754,
			"target":34963
		},
		{
			"buffer":0,
			"byteOffset":8756,
			"byteLength":25056,
			"target":34962
		},
		{
			"buffer":0,
			"byteOffset":33812,
			"byteLength":25056,
			"target":34962
		},
		{
			"buffer":0,
			"byteOffset":58868,
			"byteLength":25056,
			"target":34962
		},
		{
			"buffer":0,
			"byteOffset":83924,
			"byteLength":25056,
			"target":34962
		},
		{
			"buffer":0,
			"byteOffset":108980,
			"byteLength":25056,
			"target":34962
		},
		{
			"buffer":0,
			"byteOffset":134036,
			"byteLength":25056,
			"target":34962
		},
		{
			"buffer":0,
			"byteOffset":159092,
			"byteLength":16704,
			"target":34962
		},
		{
			"buffer":0,
			"byteOffset":175796,
			"byteLength":8352,
			"target":34962
		},
		{
			"buffer":0,
			"byteOffset":184148,
			"byteLength":16704,
			"target":34962
		}
	],
	"nodes":[
		{
			"name":"lods_0",
			"mesh":0
		}
	],
	"meshes":[
		{
			"primitives":[
				{
					"attributes":{
						"TEXCOORD_1":9,
						"_Alpha":8,
						"TEXCOORD_0":7,
						"NORMAL":6,
						"COLOR_0":5,
						"_fbx_rotation":4,
						"_fbx_scale":3,
						"_fbx_translation":2,
						"POSITION":1
					},
					"indices":0,
					"material":0
				}
			],
			"name":"transform2"
		}
	],
	"materials":[
		{
			"name":"grass_texture",
			"pbrMetallicRoughness":{
				"metallicFactor":0,
				"roughnessFactor":0.5,
				"baseColorTexture":{
					"index":0
				},
				"metallicRoughnessTexture":{
					"index":1
				}
			},
			"normalTexture":{
				"index":2
			}
		}
	],
	"scenes":[
		{
			"nodes":[0
			]
		}
	],
	"textures":[
		{
			"source":0
		},
		{
			"source":1
		},
		{
			"source":2
		}
	],
	"images":[
		{
			"uri":"Albedo_4K__wk2oaeyqx.jpg",
			"mimeType":"image/jpeg"
		},
		{
			"uri":"Roughness_4K__wk2oaeyqx.jpg",
			"mimeType":"image/jpeg"
		},
		{
			"uri":"Normal_4K__wk2oaeyqx.jpg",
			"mimeType":"image/jpeg"
		}
	],
	"scene":0
}
