{
	"asset":{
		"version":"2.0",
		"generator":"Houdini GLTF 2.0 Exporter"
	},
	"accessors":[
		{
			"bufferView":0,
			"componentType":5123,
			"count":8685,
			"type":"SCALAR",
			"min":[0
			],
			"max":[2640
			]
		},
		{
			"bufferView":1,
			"componentType":5126,
			"count":2641,
			"type":"VEC3",
			"min":[-0.289188832,-0.459746242,-0.0157390814
			],
			"max":[0.452911109,0.351729184,0.395568877
			]
		},
		{
			"bufferView":2,
			"componentType":5126,
			"count":2641,
			"type":"VEC3",
			"min":[0,0,0
			],
			"max":[0,0,0
			]
		},
		{
			"bufferView":3,
			"componentType":5126,
			"count":2641,
			"type":"VEC3",
			"min":[1,1,1
			],
			"max":[1,1,1
			]
		},
		{
			"bufferView":4,
			"componentType":5126,
			"count":2641,
			"type":"VEC3",
			"min":[0,0,0
			],
			"max":[0,0,0
			]
		},
		{
			"bufferView":5,
			"componentType":5126,
			"count":2641,
			"type":"VEC3",
			"min":[1,0,0
			],
			"max":[1,0,0
			]
		},
		{
			"bufferView":6,
			"componentType":5126,
			"count":2641,
			"type":"VEC3",
			"min":[-0.999993384,-0.999879122,-0.953937769
			],
			"max":[0.999936163,0.998817861,0.999819338
			]
		},
		{
			"bufferView":7,
			"componentType":5126,
			"count":2641,
			"type":"VEC2",
			"min":[0.0738683268,0.0108045936
			],
			"max":[0.422932446,0.995348096
			]
		},
		{
			"bufferView":8,
			"componentType":5126,
			"count":2641,
			"type":"SCALAR",
			"min":[1
			],
			"max":[1
			]
		},
		{
			"bufferView":9,
			"componentType":5126,
			"count":2641,
			"type":"VEC2",
			"min":[0.00499999989,0.00892680883
			],
			"max":[0.995000005,0.995000005
			]
		}
	],
	"buffers":[
		{
			"uri":"TundraGrass_LOD0_Var1_data.bin",
			"byteLength":260344,
			"name":"main_buffer"
		}
	],
	"bufferViews":[
		{
			"buffer":0,
			"byteLength":17370,
			"target":34963
		},
		{
			"buffer":0,
			"byteOffset":17372,
			"byteLength":31692,
			"target":34962
		},
		{
			"buffer":0,
			"byteOffset":49064,
			"byteLength":31692,
			"target":34962
		},
		{
			"buffer":0,
			"byteOffset":80756,
			"byteLength":31692,
			"target":34962
		},
		{
			"buffer":0,
			"byteOffset":112448,
			"byteLength":31692,
			"target":34962
		},
		{
			"buffer":0,
			"byteOffset":144140,
			"byteLength":31692,
			"target":34962
		},
		{
			"buffer":0,
			"byteOffset":175832,
			"byteLength":31692,
			"target":34962
		},
		{
			"buffer":0,
			"byteOffset":207524,
			"byteLength":21128,
			"target":34962
		},
		{
			"buffer":0,
			"byteOffset":228652,
			"byteLength":10564,
			"target":34962
		},
		{
			"buffer":0,
			"byteOffset":239216,
			"byteLength":21128,
			"target":34962
		}
	],
	"nodes":[
		{
			"name":"lods_0",
			"mesh":0
		}
	],
	"meshes":[
		{
			"primitives":[
				{
					"attributes":{
						"TEXCOORD_1":9,
						"_Alpha":8,
						"TEXCOORD_0":7,
						"NORMAL":6,
						"COLOR_0":5,
						"_fbx_rotation":4,
						"_fbx_scale":3,
						"_fbx_translation":2,
						"POSITION":1
					},
					"indices":0,
					"material":0
				}
			],
			"name":"transform2"
		}
	],
	"materials":[
		{
			"name":"grass_texture",
			"pbrMetallicRoughness":{
				"metallicFactor":0,
				"roughnessFactor":0.5,
				"baseColorTexture":{
					"index":0
				},
				"metallicRoughnessTexture":{
					"index":1
				}
			},
			"normalTexture":{
				"index":2
			}
		}
	],
	"scenes":[
		{
			"nodes":[0
			]
		}
	],
	"textures":[
		{
			"source":0
		},
		{
			"source":1
		},
		{
			"source":2
		}
	],
	"images":[
		{
			"uri":"Albedo_4K__wk2oaeyqx.jpg",
			"mimeType":"image/jpeg"
		},
		{
			"uri":"Roughness_4K__wk2oaeyqx.jpg",
			"mimeType":"image/jpeg"
		},
		{
			"uri":"Normal_4K__wk2oaeyqx.jpg",
			"mimeType":"image/jpeg"
		}
	],
	"scene":0
}
