{
	"asset":{
		"version":"2.0",
		"generator":"Houdini GLTF 2.0 Exporter"
	},
	"accessors":[
		{
			"bufferView":0,
			"componentType":5125,
			"count":61173,
			"type":"SCALAR",
			"min":[0
			],
			"max":[18696
			]
		},
		{
			"bufferView":1,
			"componentType":5126,
			"count":18697,
			"type":"VEC3",
			"min":[-0.966789544,-0.720098615,-0.0203344841
			],
			"max":[0.966537595,0.839879334,0.463706166
			]
		},
		{
			"bufferView":2,
			"componentType":5126,
			"count":18697,
			"type":"VEC3",
			"min":[0,0,0
			],
			"max":[0,0,0
			]
		},
		{
			"bufferView":3,
			"componentType":5126,
			"count":18697,
			"type":"VEC3",
			"min":[1,1,1
			],
			"max":[1,1,1
			]
		},
		{
			"bufferView":4,
			"componentType":5126,
			"count":18697,
			"type":"VEC3",
			"min":[0,0,0
			],
			"max":[0,0,0
			]
		},
		{
			"bufferView":5,
			"componentType":5126,
			"count":18697,
			"type":"VEC3",
			"min":[1,0,0
			],
			"max":[1,0,0
			]
		},
		{
			"bufferView":6,
			"componentType":5126,
			"count":18697,
			"type":"VEC3",
			"min":[-0.999850214,-0.999973595,-0.986263335
			],
			"max":[0.999892533,0.999980152,0.999967873
			]
		},
		{
			"bufferView":7,
			"componentType":5126,
			"count":18697,
			"type":"VEC2",
			"min":[0.0738683268,0.00792980194
			],
			"max":[0.422932446,0.995348096
			]
		},
		{
			"bufferView":8,
			"componentType":5126,
			"count":18697,
			"type":"SCALAR",
			"min":[0.996078014
			],
			"max":[1
			]
		},
		{
			"bufferView":9,
			"componentType":5126,
			"count":18697,
			"type":"VEC2",
			"min":[0.00499999989,0.00499999523
			],
			"max":[0.988333762,0.995000005
			]
		}
	],
	"buffers":[
		{
			"uri":"TundraGrass_LOD0_Var5_data.bin",
			"byteLength":1964816,
			"name":"main_buffer"
		}
	],
	"bufferViews":[
		{
			"buffer":0,
			"byteLength":244692,
			"target":34963
		},
		{
			"buffer":0,
			"byteOffset":244692,
			"byteLength":224364,
			"target":34962
		},
		{
			"buffer":0,
			"byteOffset":469056,
			"byteLength":224364,
			"target":34962
		},
		{
			"buffer":0,
			"byteOffset":693420,
			"byteLength":224364,
			"target":34962
		},
		{
			"buffer":0,
			"byteOffset":917784,
			"byteLength":224364,
			"target":34962
		},
		{
			"buffer":0,
			"byteOffset":1142148,
			"byteLength":224364,
			"target":34962
		},
		{
			"buffer":0,
			"byteOffset":1366512,
			"byteLength":224364,
			"target":34962
		},
		{
			"buffer":0,
			"byteOffset":1590876,
			"byteLength":149576,
			"target":34962
		},
		{
			"buffer":0,
			"byteOffset":1740452,
			"byteLength":74788,
			"target":34962
		},
		{
			"buffer":0,
			"byteOffset":1815240,
			"byteLength":149576,
			"target":34962
		}
	],
	"nodes":[
		{
			"name":"lods_0",
			"mesh":0
		}
	],
	"meshes":[
		{
			"primitives":[
				{
					"attributes":{
						"TEXCOORD_1":9,
						"_Alpha":8,
						"TEXCOORD_0":7,
						"NORMAL":6,
						"COLOR_0":5,
						"_fbx_rotation":4,
						"_fbx_scale":3,
						"_fbx_translation":2,
						"POSITION":1
					},
					"indices":0,
					"material":0
				}
			],
			"name":"transform2"
		}
	],
	"materials":[
		{
			"name":"grass_texture",
			"pbrMetallicRoughness":{
				"metallicFactor":0,
				"roughnessFactor":0.5,
				"baseColorTexture":{
					"index":0
				},
				"metallicRoughnessTexture":{
					"index":1
				}
			},
			"normalTexture":{
				"index":2
			}
		}
	],
	"scenes":[
		{
			"nodes":[0
			]
		}
	],
	"textures":[
		{
			"source":0
		},
		{
			"source":1
		},
		{
			"source":2
		}
	],
	"images":[
		{
			"uri":"Albedo_4K__wk2oaeyqx.jpg",
			"mimeType":"image/jpeg"
		},
		{
			"uri":"Roughness_4K__wk2oaeyqx.jpg",
			"mimeType":"image/jpeg"
		},
		{
			"uri":"Normal_4K__wk2oaeyqx.jpg",
			"mimeType":"image/jpeg"
		}
	],
	"scene":0
}
