{
	"asset":{
		"version":"2.0",
		"generator":"Houdini GLTF 2.0 Exporter"
	},
	"accessors":[
		{
			"bufferView":0,
			"componentType":5123,
			"count":14577,
			"type":"SCALAR",
			"min":[0
			],
			"max":[6821
			]
		},
		{
			"bufferView":1,
			"componentType":5126,
			"count":6822,
			"type":"VEC3",
			"min":[-0.966789544,-0.705909133,-0.0213862006
			],
			"max":[0.964342177,0.839879334,0.447208464
			]
		},
		{
			"bufferView":2,
			"componentType":5126,
			"count":6822,
			"type":"VEC3",
			"min":[0,0,0
			],
			"max":[0,0,0
			]
		},
		{
			"bufferView":3,
			"componentType":5126,
			"count":6822,
			"type":"VEC3",
			"min":[1,1,1
			],
			"max":[1,1,1
			]
		},
		{
			"bufferView":4,
			"componentType":5126,
			"count":6822,
			"type":"VEC3",
			"min":[0,0,0
			],
			"max":[0,0,0
			]
		},
		{
			"bufferView":5,
			"componentType":5126,
			"count":6822,
			"type":"VEC3",
			"min":[0,1,0
			],
			"max":[0,1,0
			]
		},
		{
			"bufferView":6,
			"componentType":5126,
			"count":6822,
			"type":"VEC3",
			"min":[-0.999366403,-0.999982595,-0.997264028
			],
			"max":[0.999557734,0.999986112,0.998818219
			]
		},
		{
			"bufferView":7,
			"componentType":5126,
			"count":6822,
			"type":"VEC2",
			"min":[0.0741621405,0.00858104229
			],
			"max":[0.421596587,0.9895913
			]
		},
		{
			"bufferView":8,
			"componentType":5126,
			"count":6822,
			"type":"SCALAR",
			"min":[0.996431172
			],
			"max":[1.0006808
			]
		},
		{
			"bufferView":9,
			"componentType":5126,
			"count":6822,
			"type":"VEC2",
			"min":[0.00499999989,0.00813734531
			],
			"max":[0.988631904,0.995250642
			]
		}
	],
	"buffers":[
		{
			"uri":"TundraGrass_LOD1_Var5_data.bin",
			"byteLength":656780,
			"name":"main_buffer"
		}
	],
	"bufferViews":[
		{
			"buffer":0,
			"byteLength":29154,
			"target":34963
		},
		{
			"buffer":0,
			"byteOffset":29156,
			"byteLength":81864,
			"target":34962
		},
		{
			"buffer":0,
			"byteOffset":111020,
			"byteLength":81864,
			"target":34962
		},
		{
			"buffer":0,
			"byteOffset":192884,
			"byteLength":81864,
			"target":34962
		},
		{
			"buffer":0,
			"byteOffset":274748,
			"byteLength":81864,
			"target":34962
		},
		{
			"buffer":0,
			"byteOffset":356612,
			"byteLength":81864,
			"target":34962
		},
		{
			"buffer":0,
			"byteOffset":438476,
			"byteLength":81864,
			"target":34962
		},
		{
			"buffer":0,
			"byteOffset":520340,
			"byteLength":54576,
			"target":34962
		},
		{
			"buffer":0,
			"byteOffset":574916,
			"byteLength":27288,
			"target":34962
		},
		{
			"buffer":0,
			"byteOffset":602204,
			"byteLength":54576,
			"target":34962
		}
	],
	"nodes":[
		{
			"name":"lods_0",
			"mesh":0
		}
	],
	"meshes":[
		{
			"primitives":[
				{
					"attributes":{
						"TEXCOORD_1":9,
						"_Alpha":8,
						"TEXCOORD_0":7,
						"NORMAL":6,
						"COLOR_0":5,
						"_fbx_rotation":4,
						"_fbx_scale":3,
						"_fbx_translation":2,
						"POSITION":1
					},
					"indices":0,
					"material":0
				}
			],
			"name":"transform2"
		}
	],
	"materials":[
		{
			"name":"grass_texture",
			"pbrMetallicRoughness":{
				"metallicFactor":0,
				"roughnessFactor":0.5,
				"baseColorTexture":{
					"index":0
				},
				"metallicRoughnessTexture":{
					"index":1
				}
			},
			"normalTexture":{
				"index":2
			}
		}
	],
	"scenes":[
		{
			"nodes":[0
			]
		}
	],
	"textures":[
		{
			"source":0
		},
		{
			"source":1
		},
		{
			"source":2
		}
	],
	"images":[
		{
			"uri":"Albedo_4K__wk2oaeyqx.jpg",
			"mimeType":"image/jpeg"
		},
		{
			"uri":"Roughness_4K__wk2oaeyqx.jpg",
			"mimeType":"image/jpeg"
		},
		{
			"uri":"Normal_4K__wk2oaeyqx.jpg",
			"mimeType":"image/jpeg"
		}
	],
	"scene":0
}
