{
	"asset":{
		"version":"2.0",
		"generator":"Houdini GLTF 2.0 Exporter"
	},
	"accessors":[
		{
			"bufferView":0,
			"componentType":5123,
			"count":1527,
			"type":"SCALAR",
			"min":[0
			],
			"max":[871
			]
		},
		{
			"bufferView":1,
			"componentType":5126,
			"count":872,
			"type":"VEC3",
			"min":[-0.615004599,-0.619557858,-0.0200507566
			],
			"max":[0.455996305,0.514098465,0.324783713
			]
		},
		{
			"bufferView":2,
			"componentType":5126,
			"count":872,
			"type":"VEC3",
			"min":[0,0,0
			],
			"max":[0,0,0
			]
		},
		{
			"bufferView":3,
			"componentType":5126,
			"count":872,
			"type":"VEC3",
			"min":[1,1,1
			],
			"max":[1,1,1
			]
		},
		{
			"bufferView":4,
			"componentType":5126,
			"count":872,
			"type":"VEC3",
			"min":[0,0,0
			],
			"max":[0,0,0
			]
		},
		{
			"bufferView":5,
			"componentType":5126,
			"count":872,
			"type":"VEC3",
			"min":[0,0,1
			],
			"max":[0,0,1
			]
		},
		{
			"bufferView":6,
			"componentType":5126,
			"count":872,
			"type":"VEC3",
			"min":[-0.998757005,-0.995894551,-0.9673509
			],
			"max":[0.99833256,0.998809814,0.982329905
			]
		},
		{
			"bufferView":7,
			"componentType":5126,
			"count":872,
			"type":"VEC2",
			"min":[0.074162133,0.00265944004
			],
			"max":[0.411459923,0.974131525
			]
		},
		{
			"bufferView":8,
			"componentType":5126,
			"count":872,
			"type":"SCALAR",
			"min":[0.997057557
			],
			"max":[1.00049031
			]
		},
		{
			"bufferView":9,
			"componentType":5126,
			"count":872,
			"type":"VEC2",
			"min":[0.00559176598,0.0134330988
			],
			"max":[0.988637328,0.99479413
			]
		}
	],
	"buffers":[
		{
			"uri":"TundraGrass_LOD2_Var3_data.bin",
			"byteLength":83280,
			"name":"main_buffer"
		}
	],
	"bufferViews":[
		{
			"buffer":0,
			"byteLength":3054,
			"target":34963
		},
		{
			"buffer":0,
			"byteOffset":3056,
			"byteLength":10464,
			"target":34962
		},
		{
			"buffer":0,
			"byteOffset":13520,
			"byteLength":10464,
			"target":34962
		},
		{
			"buffer":0,
			"byteOffset":23984,
			"byteLength":10464,
			"target":34962
		},
		{
			"buffer":0,
			"byteOffset":34448,
			"byteLength":10464,
			"target":34962
		},
		{
			"buffer":0,
			"byteOffset":44912,
			"byteLength":10464,
			"target":34962
		},
		{
			"buffer":0,
			"byteOffset":55376,
			"byteLength":10464,
			"target":34962
		},
		{
			"buffer":0,
			"byteOffset":65840,
			"byteLength":6976,
			"target":34962
		},
		{
			"buffer":0,
			"byteOffset":72816,
			"byteLength":3488,
			"target":34962
		},
		{
			"buffer":0,
			"byteOffset":76304,
			"byteLength":6976,
			"target":34962
		}
	],
	"nodes":[
		{
			"name":"lods_0",
			"mesh":0
		}
	],
	"meshes":[
		{
			"primitives":[
				{
					"attributes":{
						"TEXCOORD_1":9,
						"_Alpha":8,
						"TEXCOORD_0":7,
						"NORMAL":6,
						"COLOR_0":5,
						"_fbx_rotation":4,
						"_fbx_scale":3,
						"_fbx_translation":2,
						"POSITION":1
					},
					"indices":0,
					"material":0
				}
			],
			"name":"transform2"
		}
	],
	"materials":[
		{
			"name":"grass_texture",
			"pbrMetallicRoughness":{
				"metallicFactor":0,
				"roughnessFactor":0.5,
				"baseColorTexture":{
					"index":0
				},
				"metallicRoughnessTexture":{
					"index":1
				}
			},
			"normalTexture":{
				"index":2
			}
		}
	],
	"scenes":[
		{
			"nodes":[0
			]
		}
	],
	"textures":[
		{
			"source":0
		},
		{
			"source":1
		},
		{
			"source":2
		}
	],
	"images":[
		{
			"uri":"Albedo_4K__wk2oaeyqx.jpg",
			"mimeType":"image/jpeg"
		},
		{
			"uri":"Roughness_4K__wk2oaeyqx.jpg",
			"mimeType":"image/jpeg"
		},
		{
			"uri":"Normal_4K__wk2oaeyqx.jpg",
			"mimeType":"image/jpeg"
		}
	],
	"scene":0
}
